<svg xmlns="http://www.w3.org/2000/svg" width="152" height="40" viewBox="0 0 152 40" fill="none">
<path fill-rule="evenodd" clip-rule="evenodd" d="M22.0633 6.85519L23.0916 0.237975C22.0754 0.08 21.0354 0 20 0H19.9843V13.5008H20C20.5691 13.5008 21.1322 13.5737 21.6739 13.7175L23.4197 7.13874C22.9732 7.02025 22.5205 6.92658 22.0633 6.85519ZM16.7443 14.3727L13.3848 8.5843L13.3843 8.5838C12.9884 8.81418 12.602 9.0638 12.2324 9.33317L8.21975 3.83544C9.0638 3.21924 9.96203 2.66633 10.8906 2.19038L13.9443 8.15089C14.5641 7.83392 15.2076 7.56608 15.8684 7.35038L13.7909 0.983291C14.7833 0.659747 15.8101 0.412152 16.8435 0.248101L17.9119 6.97063C17.4597 7.04203 17.0101 7.14025 16.5676 7.25924L18.3063 13.7225C17.76 13.8694 17.2349 14.0881 16.7443 14.3727ZM8.2324 14.0258L2.16709 10.9377C1.69266 11.8699 1.28861 12.8471 0.967089 13.8425L7.44354 15.9367C7.65519 15.282 7.92051 14.6395 8.23291 14.0263L8.2324 14.0258ZM50.5129 13.6912H55.8147L61.3894 26.3089H58.4L54.0334 16.4254H53.2471V26.3089H50.5129V13.6912ZM61.3894 26.3089L66.9636 13.6912H72.2653V26.3089H69.5312V16.4254H68.7448L64.3782 26.3089H61.3894ZM106.27 26.3089H103.536V13.6912H106.27V26.3089ZM103.536 26.3089H100.547L96.1803 16.4254H94.3818V26.3089H91.6476V13.6912H97.9615L103.536 26.3089ZM79.4906 13.6912H84.4927L90.0674 26.3089H87.078L85.2618 22.1975H78.7215L76.9053 26.3089H73.916L79.4906 13.6912ZM81.2719 16.4254L79.9296 19.4633H84.0537L82.7114 16.4254H81.2719ZM107.789 16.4254V13.6912H123.283V16.4254H116.903V26.3089H114.169V16.4254H107.789ZM127.536 13.6912H124.802V26.3089H136.701V23.5747H127.536V13.6912ZM151.131 13.6912V16.4254H140.954V18.4507H149.777V21.1848H140.954V23.5747H151.131V26.3089H138.22V13.6912H151.131ZM31.4122 13.3787L25.6258 16.7413C25.9109 17.2314 26.1296 17.757 26.277 18.3023L32.7397 16.5605C32.8587 17.003 32.957 17.4522 33.0289 17.9038L39.7504 16.8334C39.5858 15.8005 39.3377 14.7732 39.0132 13.7803L32.6471 15.8618C32.4309 15.201 32.163 14.558 31.8456 13.9382L37.8041 10.8805C37.3281 9.95291 36.7742 9.05468 36.158 8.21114L30.6618 12.2263C30.9316 12.596 31.1813 12.9818 31.4116 13.3782L31.4122 13.3787ZM29.0525 2.16192L29.0527 2.16203V2.16152L29.0525 2.16192ZM29.0525 2.16192C28.1194 1.68804 27.1422 1.28453 26.1478 0.963544L24.0572 7.44101C24.7114 7.65215 25.3544 7.91747 25.9686 8.22937L29.0525 2.16192ZM26.6359 8.46481L23.238 14.362C23.7301 14.6456 24.1838 14.9929 24.5873 15.3949L34.1175 5.83241C33.3782 5.0957 32.5752 4.41165 31.7306 3.79899L27.8 9.21975C27.4253 8.94835 27.0375 8.6957 26.6365 8.4643L26.6359 8.46481ZM14.3646 16.759L8.46886 13.3575C8.70025 12.9565 8.95342 12.5686 9.22481 12.1944L3.80608 8.26127C4.41873 7.41722 5.10329 6.61468 5.84051 5.87544L15.399 15.4091C14.9965 15.8132 14.6481 16.2673 14.3646 16.759ZM7.14025 16.5727L13.718 18.323H13.7185C13.5742 18.8653 13.5008 19.4299 13.5008 20H0C0 18.9615 0.0805063 17.9175 0.239494 16.8977L6.8557 17.9291C6.92709 17.4719 7.02127 17.0192 7.14025 16.5727ZM31.7676 25.9742L37.8329 29.0623C38.3073 28.1301 38.7114 27.1529 39.0329 26.1575L32.5565 24.0633C32.3448 24.718 32.0795 25.3605 31.7671 25.9737L31.7676 25.9742ZM23.2557 25.6273L26.6152 31.4157C27.0111 31.1853 27.3975 30.9357 27.7671 30.6663L31.7797 36.164C30.9357 36.7802 30.0375 37.3332 29.1089 37.8091L26.0552 31.8486C25.4354 32.1656 24.7924 32.4334 24.1311 32.6491L26.2086 39.0162C25.2162 39.3397 24.1894 39.5873 23.1559 39.7514L22.0881 33.0294C22.5403 32.958 22.9894 32.8597 23.4324 32.7408L21.6937 26.2775C22.24 26.1306 22.7651 25.9119 23.2557 25.6273ZM8.58785 26.6213L14.3747 23.2587C14.0896 22.7686 13.8709 22.243 13.7235 21.6977L7.26076 23.4395C7.14177 22.997 7.04354 22.5478 6.97165 22.0962L0.24962 23.1666C0.414177 24.1995 0.662278 25.2268 0.986835 26.2197L7.35291 24.1382C7.56911 24.799 7.83696 25.442 8.15443 26.0618L2.19595 29.1195C2.6719 30.0471 3.22582 30.9453 3.84203 31.7889L9.33823 27.7737C9.06835 27.4041 8.81873 27.0182 8.58835 26.6218L8.58785 26.6213ZM10.9475 37.8381L10.9473 37.838V37.8385L10.9475 37.8381ZM10.9475 37.8381C11.8806 38.312 12.8578 38.7155 13.8522 39.0365L15.9428 32.559C15.2886 32.3479 14.6456 32.0825 14.0314 31.7706L10.9475 37.8381ZM13.3641 31.5352L16.762 25.638C16.2699 25.3544 15.8162 25.0071 15.4127 24.6051L5.88253 34.1676C6.62177 34.9043 7.42481 35.5884 8.26937 36.201L12.2 30.7803C12.5747 31.0516 12.9625 31.3043 13.3635 31.5357L13.3641 31.5352ZM25.6354 23.241L31.5311 26.6425L31.5306 26.643C31.2992 27.0441 31.0461 27.4319 30.7747 27.8061L36.1934 31.7392C35.5808 32.5833 34.8962 33.3858 34.159 34.1251L24.601 24.5909C25.0035 24.1868 25.3519 23.7327 25.6354 23.241ZM18.3261 26.2825L16.5803 32.8613C17.0268 32.9797 17.4795 33.0734 17.9367 33.1448L16.9089 39.762C17.9251 39.92 18.9651 40 20.0005 40H20.0162V26.4992H20.0005C19.4314 26.4992 18.8684 26.4263 18.3266 26.2825H18.3261ZM26.2815 21.677C26.4258 21.1343 26.4992 20.5705 26.4992 20.0005H40C40 21.039 39.9195 22.083 39.7605 23.1028L33.1438 22.0709C33.0724 22.5281 32.9782 22.9808 32.8592 23.4273L26.2815 21.677Z" fill="black"/>
</svg>